<svg xmlns="http://www.w3.org/2000/svg" version="1.1" xmlns:xlink="http://www.w3.org/1999/xlink" width="200" height="200"><svg xmlns="http://www.w3.org/2000/svg" viewBox="0 0 200 200">
    <defs>
        <style>.cls-1{fill:#3f2a8c;}.cls-2{fill:#fff;}.cls-3{fill:#f23d3d;}</style>
    </defs>
    <g id="SvgjsG1005">
        <rect class="cls-1" width="200" height="200"></rect>
    </g>
    <g id="SvgjsG1004">
        <rect class="cls-2" x="75" y="50" width="70" height="120" rx="8"></rect>
    </g>
    <g id="SvgjsG1003">
        <circle class="cls-1" cx="136" cy="120" r="4"></circle>
        <path class="cls-3" d="M117,37a1,1,0,0,1,1,1V142a1,1,0,0,1-1,1H63a1,1,0,0,1-1-1V38a1,1,0,0,1,1-1h54m0-7H63a8,8,0,0,0-8,8V142a8,8,0,0,0,8,8h54a8,8,0,0,0,8-8V38a8,8,0,0,0-8-8Z"></path>
        <circle class="cls-3" cx="110" cy="100" r="4"></circle>
    </g>
</svg><style>@media (prefers-color-scheme: light) { :root { filter: none; } }
@media (prefers-color-scheme: dark) { :root { filter: none; } }
</style></svg>
